HIERARCHY
ROOT reference
{
  OFFSET 0 0 0
  CHANNELS 6 Xposition Yposition Zposition Zrotation Xrotation Yrotation
  JOINT Hips
  {
    OFFSET 356.501 91.4882 232.072
    CHANNELS 3 Zrotation Xrotation Yrotation
    JOINT RightUpLeg
    {
      OFFSET -9.22368 -1.56954 0.0182318
      CHANNELS 3 Zrotation Xrotation Yrotation
      JOINT RightLeg
      {
        OFFSET 0.0168043 -41.8502 0.039304
        CHANNELS 3 Zrotation Xrotation Yrotation
        JOINT RightFoot
        {
          OFFSET -1.24655 -41.4872 1.84727
          CHANNELS 3 Zrotation Xrotation Yrotation
          End Site
          {
            OFFSET 0 -7.69 17.5
          }
        }
      }
    }
    JOINT LeftUpLeg
    {
      OFFSET 9.32755 -1.5915 0.117934
      CHANNELS 3 Zrotation Xrotation Yrotation
      JOINT LeftLeg
      {
        OFFSET 0.115891 -41.8441 0.138627
        CHANNELS 3 Zrotation Xrotation Yrotation
        JOINT LeftFoot
        {
          OFFSET -0.00258131 -42.0603 -2.16995
          CHANNELS 3 Zrotation Xrotation Yrotation
          End Site
          {
            OFFSET 0 -7.69 17.5
          }
        }
      }
    }
    JOINT Spine
    {
      OFFSET 0.0618908 14.3142 0.263402
      CHANNELS 3 Zrotation Xrotation Yrotation
      JOINT Spine1
      {
        OFFSET 0.00953893 9.71784 0.0772804
        CHANNELS 3 Zrotation Xrotation Yrotation
        JOINT Spine2
        {
          OFFSET 0.0659978 10.1164 -0.109334
          CHANNELS 3 Zrotation Xrotation Yrotation
          JOINT Spine3
          {
            OFFSET 0.00354353 9.7233 0.0181573
            CHANNELS 3 Zrotation Xrotation Yrotation
            JOINT Neck
            {
              OFFSET -0.106539 10.3631 0.143191
              CHANNELS 3 Zrotation Xrotation Yrotation
              JOINT Head
              {
                OFFSET 0.0687213 9.49492 0.178169
                CHANNELS 3 Zrotation Xrotation Yrotation
                End Site
                {
                  OFFSET 0 15.95 0
                }
              }
            }
            JOINT RightShoulder
            {
              OFFSET -3.17341 6.93407 0.0508814
              CHANNELS 3 Zrotation Xrotation Yrotation
              JOINT RightArm
              {
                OFFSET -12.8122 0.02699 0.0058978
                CHANNELS 3 Zrotation Xrotation Yrotation
                JOINT RightForeArm
                {
                  OFFSET -26.4689 -0.0132424 0.0432591
                  CHANNELS 3 Zrotation Xrotation Yrotation
                  JOINT RightHand
                  {
                    OFFSET -25.9762 -0.0747187 0.0544432
                    CHANNELS 3 Zrotation Xrotation Yrotation
                    JOINT RightHandThumb1
                    {
                      OFFSET -2.48905 0.190105 3.12053
                      CHANNELS 3 Zrotation Xrotation Yrotation
                      JOINT RightHandThumb2
                      {
                        OFFSET -3.68274 0 0
                        CHANNELS 3 Zrotation Xrotation Yrotation
                        JOINT RightHandThumb3
                        {
                          OFFSET -2.55832 0 0
                          CHANNELS 3 Zrotation Xrotation Yrotation
                          End Site
                          {
                            OFFSET -2.194 0 0
                          }
                        }
                      }
                    }
                    JOINT RightInHandIndex
                    {
                      OFFSET -3.22368 0.508421 1.97842
                      CHANNELS 3 Zrotation Xrotation Yrotation
                      JOINT RightHandIndex1
                      {
                        OFFSET -5.21684 -0.091368 0.999158
                        CHANNELS 3 Zrotation Xrotation Yrotation
                        JOINT RightHandIndex2
                        {
                          OFFSET -3.61937 0 0
                          CHANNELS 3 Zrotation Xrotation Yrotation
                          JOINT RightHandIndex3
                          {
                            OFFSET -2.0521 0 0
                            CHANNELS 3 Zrotation Xrotation Yrotation
                            End Site
                            {
                              OFFSET -1.805 0 0
                            }
                          }
                        }
                      }
                    }
                    JOINT RightInHandMiddle
                    {
                      OFFSET -3.38211 0.517263 0.756737
                      CHANNELS 3 Zrotation Xrotation Yrotation
                      JOINT RightHandMiddle1
                      {
                        OFFSET -5.17411 -0.084 0.313895
                        CHANNELS 3 Zrotation Xrotation Yrotation
                        JOINT RightHandMiddle2
                        {
                          OFFSET -3.94947 0 0
                          CHANNELS 3 Zrotation Xrotation Yrotation
                          JOINT RightHandMiddle3
                          {
                            OFFSET -2.47579 0 0
                            CHANNELS 3 Zrotation Xrotation Yrotation
                            End Site
                            {
                              OFFSET -1.975 0 0
                            }
                          }
                        }
                      }
                    }
                    JOINT RightInHandRing
                    {
                      OFFSET -3.36516 0.537895 -0.128947
                      CHANNELS 3 Zrotation Xrotation Yrotation
                      JOINT RightHandRing1
                      {
                        OFFSET -4.63474 -0.022105 -0.478947
                        CHANNELS 3 Zrotation Xrotation Yrotation
                        JOINT RightHandRing2
                        {
                          OFFSET -3.44238 0 0
                          CHANNELS 3 Zrotation Xrotation Yrotation
                          JOINT RightHandRing3
                          {
                            OFFSET -2.3881 0 0
                            CHANNELS 3 Zrotation Xrotation Yrotation
                            End Site
                            {
                              OFFSET -1.857 0 0
                            }
                          }
                        }
                      }
                    }
                    JOINT RightInHandPinky
                    {
                      OFFSET -3.16105 0.469368 -1.20179
                      CHANNELS 3 Zrotation Xrotation Yrotation
                      JOINT RightHandPinky1
                      {
                        OFFSET -4.14105 -0.022105 -1.09053
                        CHANNELS 3 Zrotation Xrotation Yrotation
                        JOINT RightHandPinky2
                        {
                          OFFSET -2.75653 0 0
                          CHANNELS 3 Zrotation Xrotation Yrotation
                          JOINT RightHandPinky3
                          {
                            OFFSET -1.74189 0 0
                            CHANNELS 3 Zrotation Xrotation Yrotation
                            End Site
                            {
                              OFFSET -1.645 0 0
                            }
                          }
                        }
                      }
                    }
                  }
                }
              }
            }
            JOINT LeftShoulder
            {
              OFFSET 3.13763 6.93537 0.265461
              CHANNELS 3 Zrotation Xrotation Yrotation
              JOINT LeftArm
              {
                OFFSET 12.4516 -0.0856895 0.350644
                CHANNELS 3 Zrotation Xrotation Yrotation
                JOINT LeftForeArm
                {
                  OFFSET 26.6962 -0.139113 0.0812581
                  CHANNELS 3 Zrotation Xrotation Yrotation
                  JOINT LeftHand
                  {
                    OFFSET 25.9561 0.0264111 -0.243705
                    CHANNELS 3 Zrotation Xrotation Yrotation
                    JOINT LeftHandThumb1
                    {
                      OFFSET 2.48905 0.190105 3.12053
                      CHANNELS 3 Zrotation Xrotation Yrotation
                      JOINT LeftHandThumb2
                      {
                        OFFSET 3.68274 0 0
                        CHANNELS 3 Zrotation Xrotation Yrotation
                        JOINT LeftHandThumb3
                        {
                          OFFSET 2.55832 0 0
                          CHANNELS 3 Zrotation Xrotation Yrotation
                          End Site
                          {
                            OFFSET 2.194 0 0
                          }
                        }
                      }
                    }
                    JOINT LeftInHandIndex
                    {
                      OFFSET 3.22368 0.508421 1.97842
                      CHANNELS 3 Zrotation Xrotation Yrotation
                      JOINT LeftHandIndex1
                      {
                        OFFSET 5.21684 -0.091368 0.999158
                        CHANNELS 3 Zrotation Xrotation Yrotation
                        JOINT LeftHandIndex2
                        {
                          OFFSET 3.61937 0 0
                          CHANNELS 3 Zrotation Xrotation Yrotation
                          JOINT LeftHandIndex3
                          {
                            OFFSET 2.0521 0 0
                            CHANNELS 3 Zrotation Xrotation Yrotation
                            End Site
                            {
                              OFFSET 1.805 0 0
                            }
                          }
                        }
                      }
                    }
                    JOINT LeftInHandMiddle
                    {
                      OFFSET 3.38211 0.517263 0.756737
                      CHANNELS 3 Zrotation Xrotation Yrotation
                      JOINT LeftHandMiddle1
                      {
                        OFFSET 5.17411 -0.084 0.313895
                        CHANNELS 3 Zrotation Xrotation Yrotation
                        JOINT LeftHandMiddle2
                        {
                          OFFSET 3.94947 0 0
                          CHANNELS 3 Zrotation Xrotation Yrotation
                          JOINT LeftHandMiddle3
                          {
                            OFFSET 2.47579 0 0
                            CHANNELS 3 Zrotation Xrotation Yrotation
                            End Site
                            {
                              OFFSET 1.975 0 0
                            }
                          }
                        }
                      }
                    }
                    JOINT LeftInHandRing
                    {
                      OFFSET 3.36516 0.537895 -0.128947
                      CHANNELS 3 Zrotation Xrotation Yrotation
                      JOINT LeftHandRing1
                      {
                        OFFSET 4.63474 -0.022105 -0.478947
                        CHANNELS 3 Zrotation Xrotation Yrotation
                        JOINT LeftHandRing2
                        {
                          OFFSET 3.44238 0 0
                          CHANNELS 3 Zrotation Xrotation Yrotation
                          JOINT LeftHandRing3
                          {
                            OFFSET 2.3881 0 0
                            CHANNELS 3 Zrotation Xrotation Yrotation
                            End Site
                            {
                              OFFSET 1.857 0 0
                            }
                          }
                        }
                      }
                    }
                    JOINT LeftInHandPinky
                    {
                      OFFSET 3.16105 0.469368 -1.20179
                      CHANNELS 3 Zrotation Xrotation Yrotation
                      JOINT LeftHandPinky1
                      {
                        OFFSET 4.14105 -0.022105 -1.09053
                        CHANNELS 3 Zrotation Xrotation Yrotation
                        JOINT LeftHandPinky2
                        {
                          OFFSET 2.75653 0 0
                          CHANNELS 3 Zrotation Xrotation Yrotation
                          JOINT LeftHandPinky3
                          {
                            OFFSET 1.74189 0 0
                            CHANNELS 3 Zrotation Xrotation Yrotation
                            End Site
                            {
                              OFFSET 1.645 0 0
                            }
                          }
                        }
                      }
                    }
                  }
                }
              }
            }
          }
        }
      }
    }
  }
}
MOTION
Frames: 2
Frame Time: 0.00833333
6.000000000000000000e+02 0.000000000000000000e+00 0.000000000000000000e+00 0.000000000000000000e+00 0.000000000000000000e+00 0.000000000000000000e+00 -1.850710505869415989e+00 -1.036173459116463746e+00 6.048787083187239233e+00 -9.573475624366690750e-01 7.279546126461250211e+00 2.339967119937674145e+00 3.052930071734000217e-01 -2.984380654514968700e+00 -1.342253105020789317e+00 -2.871731087292078710e-01 1.505098895096856904e+00 -3.825013418758215433e+00 -3.194100544908351047e+00 3.650648492852213156e+00 -1.585414880561955231e+00 2.727393140825233320e-01 -3.387656044184439441e+00 -2.467206607266954510e+00 1.318608674545933113e+00 5.353842830080778326e-01 -1.243678513854034051e+00 5.294797736677676614e-01 -3.301730614263549690e-02 3.595348956697013154e+00 2.027572191088468090e-01 -8.918984433924306843e-02 9.805703213060095180e-01 3.125763817511084675e-01 -2.363108484641045226e-01 1.580977444113315533e+00 1.430502540891618601e-01 -7.742542002694523251e-03 -3.980527471896212477e-01 2.274198697756020515e-01 -1.224860762131850800e+00 -5.156770762902271876e-01 3.098325767236988160e+00 2.284399465926667983e+00 -7.773544113025606883e+00 -1.995433764879219973e+00 -3.763437280131450291e-01 2.784257818361944192e+00 -9.744385670226742846e+00 1.837953046101024057e+00 4.324801681525539010e+00 -3.731935386974437385e+00 4.015011812073566055e+00 -1.156016002563983669e+01 3.320714964805545066e-01 3.146546599547146439e+00 -6.862076971643952028e+00 0.000000000000000000e+00 0.000000000000000000e+00 0.000000000000000000e+00 7.427180510878550870e-16 -2.789926516096384714e-15 0.000000000000000000e+00 -3.317881080052323556e-15 5.097323466667827015e-15 0.000000000000000000e+00 1.060013248036519338e-17 -2.986751124309116470e-15 2.073007766700307386e-15 0.000000000000000000e+00 0.000000000000000000e+00 0.000000000000000000e+00 0.000000000000000000e+00 -1.669653500704519629e-15 -3.265525131040421275e-15 0.000000000000000000e+00 -3.137252735314963513e-15 -2.207710239212954747e-15 1.060013248036519338e-17 -2.986751124309116470e-15 2.073007766700307386e-15 0.000000000000000000e+00 1.323506309776047869e-15 -5.566601309110993727e-16 0.000000000000000000e+00 -1.747527507973104610e-15 -7.716118729773157399e-15 0.000000000000000000e+00 2.115187451267837552e-15 -8.724238222968423895e-15 1.060013248036519338e-17 -2.986751124309116470e-15 2.073007766700307386e-15 0.000000000000000000e+00 0.000000000000000000e+00 0.000000000000000000e+00 0.000000000000000000e+00 -4.059351606655480313e-15 -2.289758844050203254e-16 0.000000000000000000e+00 3.424471401351978863e-16 -7.577639491158154995e-15 1.060013248036519338e-17 -2.986751124309116470e-15 2.073007766700307386e-15 0.000000000000000000e+00 0.000000000000000000e+00 0.000000000000000000e+00 0.000000000000000000e+00 1.768806320454097834e-15 -1.147844677417759197e-14 0.000000000000000000e+00 -2.046424866115225424e-15 -4.580815280443814936e-15 -1.802391120067206476e+00 -2.977711266390322020e+00 -1.766005180060910229e+00 -7.165698256685994139e+00 -1.322012527513271030e+00 7.121578384071822754e+00 -1.988075553949618524e+01 -1.116629514801186573e+01 -2.511192596093117047e+01 1.802010784332182869e+00 -6.108939459113792436e-01 -1.708165656335743243e+00 0.000000000000000000e+00 0.000000000000000000e+00 0.000000000000000000e+00 1.520483854779334369e-14 2.074416746035841112e-15 0.000000000000000000e+00 5.285625549156938706e-15 3.402654934858989220e-15 0.000000000000000000e+00 1.195885488109574729e-15 3.495688389509799176e-15 -1.411734060092548199e-15 0.000000000000000000e+00 0.000000000000000000e+00 0.000000000000000000e+00 0.000000000000000000e+00 8.039967948618923800e-16 7.288250226568635721e-15 0.000000000000000000e+00 -2.836058982407874422e-15 -3.167361075410776895e-15 1.195885488109574729e-15 3.495688389509799176e-15 -1.411734060092548199e-15 0.000000000000000000e+00 -3.052016046307227878e-15 -3.435776317022257417e-15 0.000000000000000000e+00 -9.022529097816682360e-16 1.169246125796951192e-14 0.000000000000000000e+00 4.280102594015670206e-15 3.969872408427537837e-15 1.195885488109574729e-15 3.495688389509799176e-15 -1.411734060092548199e-15 0.000000000000000000e+00 0.000000000000000000e+00 0.000000000000000000e+00 0.000000000000000000e+00 -8.174598874441359623e-15 6.592586947736940153e-15 0.000000000000000000e+00 -7.634812080692008830e-15 -4.959285025733147877e-16 1.195885488109574729e-15 3.495688389509799176e-15 -1.411734060092548199e-15 0.000000000000000000e+00 0.000000000000000000e+00 0.000000000000000000e+00 0.000000000000000000e+00 -4.782401163761982556e-15 3.655549243263550843e-15 0.000000000000000000e+00 -3.379758481439932064e-15 -4.119127562220273458e-15
6.000000000000000000e+02 0.000000000000000000e+00 0.000000000000000000e+00 0.000000000000000000e+00 0.000000000000000000e+00 0.000000000000000000e+00 -1.919179713130019671e+00 -1.116442000390457823e+00 5.987650766929887070e+00 -9.090707762337436604e-01 7.371099596621602856e+00 2.404821501816567952e+00 2.952361472091368788e-01 -2.973218946920892947e+00 -1.393121170578847767e+00 -2.842968285742630830e-01 1.597177320864728856e+00 -3.639659272376636778e+00 -3.256170793751176351e+00 3.876627715751289394e+00 -1.538076923305905064e+00 2.406437867396894192e-01 -3.481941645488281889e+00 -2.451407161378959643e+00 1.353921314829226397e+00 5.872879970629525381e-01 -1.253521937141244935e+00 4.721063004243591932e-01 -5.459073915816493872e-02 3.628256293116917330e+00 1.898878840223776343e-01 -9.687232524979105808e-02 9.891516252132571685e-01 2.909205951564217685e-01 -2.502988639046578312e-01 1.594801482140348448e+00 1.444657905223147298e-01 -7.020486335353097983e-03 -3.932527758274753649e-01 2.455899522569069959e-01 -1.154669350793603888e+00 -5.054241657458301562e-01 3.119296930986806160e+00 2.248824504703840876e+00 -7.715159472728206680e+00 -2.018548305487328776e+00 -2.814037192682235511e-01 2.830635314534200919e+00 -9.759665557999566587e+00 1.801062720007825080e+00 4.415790640524480004e+00 -4.233329966976143943e+00 3.919308972648733569e+00 -1.142780403165130032e+01 4.687329492829652167e-01 3.333347602688510047e+00 -7.041231546287535892e+00 0.000000000000000000e+00 0.000000000000000000e+00 0.000000000000000000e+00 5.792495558083202071e-16 -3.125829963628052318e-15 0.000000000000000000e+00 -3.814750841935060575e-15 4.472693261064648172e-15 0.000000000000000000e+00 2.314900869706538959e-16 -2.764504964338210534e-15 1.836797430084360250e-15 0.000000000000000000e+00 0.000000000000000000e+00 0.000000000000000000e+00 0.000000000000000000e+00 -1.767032120340890713e-15 -3.148410079109589229e-15 0.000000000000000000e+00 -2.602056537166254009e-15 -2.424142603267218415e-15 2.314900869706538959e-16 -2.764504964338210534e-15 1.836797430084360250e-15 0.000000000000000000e+00 1.558567250018191432e-15 -2.045892896754251695e-16 0.000000000000000000e+00 -1.765344055968211653e-15 -7.988507272842557536e-15 0.000000000000000000e+00 1.684181451575047789e-15 -8.430934749524721408e-15 2.314900869706538959e-16 -2.764504964338210534e-15 1.836797430084360250e-15 0.000000000000000000e+00 0.000000000000000000e+00 0.000000000000000000e+00 0.000000000000000000e+00 -4.449675464055924584e-15 9.560015434046946246e-17 0.000000000000000000e+00 -2.233084249523816060e-16 -7.922291912093234570e-15 2.314900869706538959e-16 -2.764504964338210534e-15 1.836797430084360250e-15 0.000000000000000000e+00 0.000000000000000000e+00 0.000000000000000000e+00 0.000000000000000000e+00 1.710133270032367600e-15 -1.125651197053834157e-14 0.000000000000000000e+00 -1.856746994610736385e-15 -4.583490576979007219e-15 -1.740179998247395776e+00 -2.892469668212025891e+00 -1.639182168396506656e+00 -7.166610193473421653e+00 -1.363568460817026207e+00 7.019822414332064220e+00 -2.002596410825966089e+01 -1.134073744083243795e+01 -2.568067335803590012e+01 1.948210561310482536e+00 -5.723372270815617613e-01 -1.757363812757333887e+00 0.000000000000000000e+00 0.000000000000000000e+00 0.000000000000000000e+00 1.480809214751395849e-14 2.164969774913008951e-15 0.000000000000000000e+00 5.369276161108482349e-15 3.395034563861683017e-15 0.000000000000000000e+00 1.062263996634863640e-15 3.356814150784419473e-15 -1.268191925428063195e-15 0.000000000000000000e+00 0.000000000000000000e+00 0.000000000000000000e+00 0.000000000000000000e+00 5.953677690010514888e-16 7.357498226638332821e-15 0.000000000000000000e+00 -2.717257028352485736e-15 -2.678457112154289468e-15 1.062263996634863640e-15 3.356814150784419473e-15 -1.268191925428063195e-15 0.000000000000000000e+00 -3.694747253533599121e-15 -3.347743938769172203e-15 0.000000000000000000e+00 -1.110090157368051408e-15 1.193716704934864505e-14 0.000000000000000000e+00 3.949088721193917981e-15 4.218633608985099503e-15 1.062263996634863640e-15 3.356814150784419473e-15 -1.268191925428063195e-15 0.000000000000000000e+00 0.000000000000000000e+00 0.000000000000000000e+00 0.000000000000000000e+00 -7.381906162264526183e-15 6.586839036074190056e-15 0.000000000000000000e+00 -7.836114781546135988e-15 -5.460913340114227072e-16 1.062263996634863640e-15 3.356814150784419473e-15 -1.268191925428063195e-15 0.000000000000000000e+00 0.000000000000000000e+00 0.000000000000000000e+00 0.000000000000000000e+00 -4.404246185036802356e-15 3.907643836129891617e-15 0.000000000000000000e+00 -3.005153972382712955e-15 -4.021863712428952782e-15
